<mxfile host="app.diagrams.net" agent="Mozilla/5.0 (Macintosh; Intel Mac OS X 10_15_7) AppleWebKit/537.36 (KHTML, like Gecko) Chrome/134.0.0.0 Safari/537.36" version="26.2.14">
  <diagram id="C5RBs43oDa-KdzZeNtuy" name="Page-1">
    <mxGraphModel dx="2129" dy="874" grid="1" gridSize="10" guides="1" tooltips="1" connect="1" arrows="1" fold="1" page="1" pageScale="1" pageWidth="827" pageHeight="1169" math="0" shadow="0">
      <root>
        <mxCell id="WIyWlLk6GJQsqaUBKTNV-0" />
        <mxCell id="WIyWlLk6GJQsqaUBKTNV-1" parent="WIyWlLk6GJQsqaUBKTNV-0" />
        <mxCell id="JLMAobXM5yFxve7RQYuS-0" value="«interface»&lt;br&gt;&lt;b&gt;&lt;a href=&quot;https://docs.oracle.com/javase/8/docs/api/java/util/concurrent/ExecutorService.html&quot;&gt;ExecutorService&lt;/a&gt;&lt;/b&gt;" style="html=1;whiteSpace=wrap;" vertex="1" parent="WIyWlLk6GJQsqaUBKTNV-1">
          <mxGeometry x="359" y="130" width="110" height="50" as="geometry" />
        </mxCell>
        <mxCell id="JLMAobXM5yFxve7RQYuS-2" style="edgeStyle=orthogonalEdgeStyle;rounded=0;orthogonalLoop=1;jettySize=auto;html=1;exitX=0.5;exitY=0;exitDx=0;exitDy=0;entryX=0.5;entryY=1;entryDx=0;entryDy=0;" edge="1" parent="WIyWlLk6GJQsqaUBKTNV-1" source="JLMAobXM5yFxve7RQYuS-1" target="JLMAobXM5yFxve7RQYuS-0">
          <mxGeometry relative="1" as="geometry" />
        </mxCell>
        <mxCell id="JLMAobXM5yFxve7RQYuS-1" value="«interface»&lt;br&gt;&lt;b&gt;&lt;a href=&quot;https://docs.oracle.com/javase/8/docs/api/java/util/concurrent/ScheduledExecutorService.html&quot;&gt;ScheduledExecutorService&lt;/a&gt;&lt;/b&gt;" style="html=1;whiteSpace=wrap;" vertex="1" parent="WIyWlLk6GJQsqaUBKTNV-1">
          <mxGeometry x="30" y="240" width="280" height="50" as="geometry" />
        </mxCell>
        <mxCell id="JLMAobXM5yFxve7RQYuS-4" style="edgeStyle=orthogonalEdgeStyle;rounded=0;orthogonalLoop=1;jettySize=auto;html=1;exitX=0.5;exitY=0;exitDx=0;exitDy=0;entryX=0.5;entryY=1;entryDx=0;entryDy=0;" edge="1" parent="WIyWlLk6GJQsqaUBKTNV-1" source="JLMAobXM5yFxve7RQYuS-3" target="JLMAobXM5yFxve7RQYuS-0">
          <mxGeometry relative="1" as="geometry" />
        </mxCell>
        <mxCell id="JLMAobXM5yFxve7RQYuS-3" value="«class»&lt;br&gt;&lt;b&gt;&lt;a href=&quot;https://docs.oracle.com/javase/8/docs/api/java/util/concurrent/ThreadPoolExecutor.html&quot;&gt;ThreadPoolExecutor&lt;/a&gt;&lt;/b&gt;" style="html=1;whiteSpace=wrap;" vertex="1" parent="WIyWlLk6GJQsqaUBKTNV-1">
          <mxGeometry x="510" y="240" width="280" height="50" as="geometry" />
        </mxCell>
        <mxCell id="JLMAobXM5yFxve7RQYuS-6" style="edgeStyle=orthogonalEdgeStyle;rounded=0;orthogonalLoop=1;jettySize=auto;html=1;exitX=0.5;exitY=0;exitDx=0;exitDy=0;entryX=0.5;entryY=1;entryDx=0;entryDy=0;" edge="1" parent="WIyWlLk6GJQsqaUBKTNV-1" source="JLMAobXM5yFxve7RQYuS-5" target="JLMAobXM5yFxve7RQYuS-1">
          <mxGeometry relative="1" as="geometry" />
        </mxCell>
        <mxCell id="JLMAobXM5yFxve7RQYuS-7" style="edgeStyle=orthogonalEdgeStyle;rounded=0;orthogonalLoop=1;jettySize=auto;html=1;exitX=0.5;exitY=0;exitDx=0;exitDy=0;entryX=0.5;entryY=1;entryDx=0;entryDy=0;" edge="1" parent="WIyWlLk6GJQsqaUBKTNV-1" source="JLMAobXM5yFxve7RQYuS-5" target="JLMAobXM5yFxve7RQYuS-3">
          <mxGeometry relative="1" as="geometry" />
        </mxCell>
        <mxCell id="JLMAobXM5yFxve7RQYuS-5" value="«class»&lt;br&gt;&lt;b&gt;&lt;a href=&quot;https://docs.oracle.com/javase/8/docs/api/java/util/concurrent/ScheduledThreadPoolExecutor.html&quot;&gt;ScheduledThreadPoolExecutor&lt;/a&gt;&lt;/b&gt;" style="html=1;whiteSpace=wrap;" vertex="1" parent="WIyWlLk6GJQsqaUBKTNV-1">
          <mxGeometry x="274" y="360" width="280" height="50" as="geometry" />
        </mxCell>
      </root>
    </mxGraphModel>
  </diagram>
</mxfile>
